<?xml version="1.0" standalone="no"?>
<!DOCTYPE svg PUBLIC "-//W3C//DTD SVG 20010904//EN"
 "http://www.w3.org/TR/2001/REC-SVG-20010904/DTD/svg10.dtd">
<svg version="1.0" xmlns="http://www.w3.org/2000/svg"
 width="1035.000000pt" height="1035.000000pt" viewBox="0 0 1035.000000 1035.000000"
 preserveAspectRatio="xMidYMid meet">
<metadata>
Created by potrace 1.11, written by Peter Selinger 2001-2013
</metadata>
<g transform="translate(0.000000,1035.000000) scale(0.100000,-0.100000)"
fill="#000000" stroke="none">
<path d="M3336 7749 c-279 -38 -531 -165 -728 -366 -313 -319 -428 -766 -312
-1206 31 -118 125 -309 203 -413 146 -196 366 -356 596 -433 l84 -28 -80 -6
c-58 -4 -86 -10 -101 -24 -38 -34 -255 -278 -266 -300 -22 -40 -15 -92 17
-124 l29 -29 394 0 c354 0 396 -2 427 -18 44 -22 191 -250 191 -295 0 -38 -27
-82 -59 -97 -15 -7 -378 -39 -838 -75 -856 -66 -846 -65 -873 -115 -44 -82
-350 -810 -350 -833 0 -15 5 -37 10 -48 10 -19 34 -19 1195 -19 1174 0 1184 0
1195 -20 10 -20 21 -20 505 -20 484 0 495 0 507 20 13 20 24 20 1201 20 1315
0 1234 -4 1447 67 124 40 334 140 440 208 428 274 738 703 865 1200 33 129 65
350 65 453 l0 52 -885 0 -885 0 0 199 0 200 208 3 c200 3 209 4 264 30 130 60
221 185 242 331 l7 47 -415 0 -416 0 0 90 0 89 153 3 152 3 -2 62 c-3 121 -78
229 -179 259 -45 13 -191 14 -1130 11 -999 -3 -1083 -4 -1139 -21 -83 -24
-210 -87 -273 -136 -29 -22 -53 -40 -55 -40 -1 0 -3 51 -4 113 -8 508 -338
967 -823 1142 -41 14 -113 35 -160 46 -101 22 -324 32 -424 18z m3714 -1549
l0 -90 -665 0 -665 0 0 25 c0 47 48 112 105 143 14 8 202 11 623 12 l602 0 0
-90z m-122 -702 l2 -198 -1145 0 -1145 0 0 200 0 200 1143 -2 1142 -3 3 -197z
m-2688 -98 l0 -100 -212 0 -213 1 71 23 c88 28 222 93 289 139 28 20 53 35 58
36 4 1 7 -44 7 -99z m3725 -602 c-24 -160 -119 -286 -260 -349 -36 -16 -77
-23 -142 -27 l-93 -4 0 90 c0 83 -2 92 -22 106 -20 14 -176 16 -1467 16
l-1445 0 -23 -22 c-20 -19 -23 -31 -23 -105 l0 -83 -193 0 -194 0 9 62 c21
153 132 285 284 337 58 20 75 20 1817 21 l1759 0 -7 -42z m-3215 -283 l0 -85
-115 0 -115 0 0 78 c0 43 3 82 7 85 3 4 55 7 115 7 l108 0 0 -85z m340 0 l0
-85 -155 0 -155 0 0 85 0 85 155 0 155 0 0 -85z m340 0 l0 -85 -155 0 -155 0
0 85 0 85 155 0 155 0 0 -85z m340 0 l0 -85 -155 0 -155 0 0 85 0 85 155 0
155 0 0 -85z m340 0 l0 -85 -155 0 -155 0 0 85 0 85 155 0 155 0 0 -85z m340
0 l0 -85 -155 0 -155 0 0 85 0 85 155 0 155 0 0 -85z m350 0 l0 -85 -160 0
-160 0 0 85 0 85 160 0 160 0 0 -85z m340 0 l0 -85 -160 0 -160 0 0 85 0 85
160 0 160 0 0 -85z m298 73 c7 -7 12 -42 12 -85 l0 -73 -145 0 -145 0 0 85 0
85 133 0 c90 0 137 -4 145 -12z"/>
</g>
</svg>
